HIERARCHY
ROOT Hips
{
	OFFSET 0.000000 0.000000 0.000000
	CHANNELS 6 Xposition Yposition Zposition Xrotation Yrotation Zrotation
	JOINT LeftUpLeg_virtual
	{
		OFFSET 0.000000 0.000000 0.000000
		CHANNELS 3 Xrotation Yrotation Zrotation
		JOINT LeftUpLeg
		{
			OFFSET 15.427100 -6.655098 0.678600
			CHANNELS 3 Xrotation Yrotation Zrotation
			JOINT LeftLeg
			{
				OFFSET 4.081073 -39.591068 13.024000
				CHANNELS 3 Xrotation Yrotation Zrotation
				JOINT LeftFoot
				{
					OFFSET -4.081074 -37.707932 -15.979700
					CHANNELS 3 Xrotation Yrotation Zrotation
					JOINT LeftToeBase
					{
						OFFSET 5.346399 -15.068900 20.645000
						CHANNELS 3 Xrotation Yrotation Zrotation
						JOINT LeftToe_End
						{
							OFFSET 2.754700 0.931300 11.300900
							CHANNELS 3 Xrotation Yrotation Zrotation
							End Site
							{
								OFFSET 0 0 0
							}
						}
					}
				}
			}
		}
	}
	JOINT RightUpLeg_virtual
	{
		OFFSET 0.000000 0.000000 0.000000
		CHANNELS 3 Xrotation Yrotation Zrotation
		JOINT RightUpLeg
		{
			OFFSET -15.569500 -6.655098 0.678600
			CHANNELS 3 Xrotation Yrotation Zrotation
			JOINT RightLeg
			{
				OFFSET -4.081825 -39.591045 13.023800
				CHANNELS 3 Xrotation Yrotation Zrotation
				JOINT RightFoot
				{
					OFFSET 4.081824 -37.707954 -15.979600
					CHANNELS 3 Xrotation Yrotation Zrotation
					JOINT RightToeBase
					{
						OFFSET -5.346400 -15.068900 20.645000
						CHANNELS 3 Xrotation Yrotation Zrotation
						JOINT RightToe_End
						{
							OFFSET -2.754700 0.931300 11.300900
							CHANNELS 3 Xrotation Yrotation Zrotation
							End Site
							{
								OFFSET 0 0 0
							}
						}
					}
				}
			}
		}
	}
	JOINT Spine_virtual
	{
		OFFSET 0.000000 0.000000 0.000000
		CHANNELS 3 Xrotation Yrotation Zrotation
		JOINT Spine
		{
			OFFSET -0.279200 12.230698 -2.892100
			CHANNELS 3 Xrotation Yrotation Zrotation
			JOINT Spine1
			{
				OFFSET -0.232667 10.192268 -1.242267
				CHANNELS 3 Xrotation Yrotation Zrotation
				JOINT Spine1_split
				{
					OFFSET -0.232667 10.192268 -1.242267
					CHANNELS 3 Xrotation Yrotation Zrotation
					JOINT Spine2
					{
						OFFSET -0.232667 10.192268 -1.242267
						CHANNELS 3 Xrotation Yrotation Zrotation
						JOINT Neck_virtual
						{
							OFFSET 0.000000 0.000000 0.000000
							CHANNELS 3 Xrotation Yrotation Zrotation
							JOINT Neck
							{
								OFFSET -0.418800 17.814194 8.416900
								CHANNELS 3 Xrotation Yrotation Zrotation
								JOINT Head
								{
									OFFSET 0.000000 7.031097 3.806800
									CHANNELS 3 Xrotation Yrotation Zrotation
									JOINT HeadTop_End
									{
										OFFSET 0.000000 24.646606 12.978600
										CHANNELS 3 Xrotation Yrotation Zrotation
										End Site
										{
											OFFSET 0 0 0
										}
									}
								}
							}
						}
						JOINT LeftShoulder_virtual
						{
							OFFSET 0.000000 0.000000 0.000000
							CHANNELS 3 Xrotation Yrotation Zrotation
							JOINT LeftShoulder
							{
								OFFSET 8.476499 7.247704 -3.868750
								CHANNELS 3 Xrotation Yrotation Zrotation
								JOINT LeftShoulder_split
								{
									OFFSET 8.476499 7.247704 -3.868750
									CHANNELS 3 Xrotation Yrotation Zrotation
									JOINT LeftArm
									{
										OFFSET 9.308998 -2.777710 0.208600
										CHANNELS 3 Xrotation Yrotation Zrotation
										JOINT LeftForeArm
										{
											OFFSET 29.972298 0.000000 0.000000
											CHANNELS 3 Xrotation Yrotation Zrotation
											JOINT LeftHand
											{
												OFFSET 26.026505 0.000000 0.000000
												CHANNELS 3 Xrotation Yrotation Zrotation
												End Site
												{
													OFFSET 0 0 0
												}
											}
										}
									}
								}
							}
						}
						JOINT RightShoulder_virtual
						{
							OFFSET 0.000000 0.000000 0.000000
							CHANNELS 3 Xrotation Yrotation Zrotation
							JOINT RightShoulder
							{
								OFFSET -7.570500 7.247704 -3.868750
								CHANNELS 3 Xrotation Yrotation Zrotation
								JOINT RightShoulder_split
								{
									OFFSET -7.570500 7.247704 -3.868750
									CHANNELS 3 Xrotation Yrotation Zrotation
									JOINT RightArm
									{
										OFFSET -9.308998 -2.777710 0.208500
										CHANNELS 3 Xrotation Yrotation Zrotation
										JOINT RightForeArm
										{
											OFFSET -29.972300 0.000000 0.000000
											CHANNELS 3 Xrotation Yrotation Zrotation
											JOINT RightHand
											{
												OFFSET -26.026505 0.000000 0.000000
												CHANNELS 3 Xrotation Yrotation Zrotation
												End Site
												{
													OFFSET 0 0 0
												}
											}
										}
									}
								}
							}
						}
					}
				}
			}
		}
	}
}
MOTION
Frames: 4
Frame Time: 0.03333333
3.857760 85.213341 0.984924 0.000000 0.000000 0.000000 23.534259 -86.201454 25.655475 -20.301907 31.675842 29.918305 20.876750 -8.578311 -1.379335 -8.014891 2.921686 -19.156944 0.943609 -0.521646 -0.567257 0.000000 0.000000 0.000000 11.197789 -85.712850 14.273075 -15.746059 -11.000782 -30.623088 14.095226 4.757654 -3.159448 -6.004513 5.994859 21.891849 3.184225 0.839983 1.817735 0.000000 0.000000 0.000000 9.896785 -81.939321 12.349749 6.772121 -3.683045 -3.218489 1.850865 -7.907940 -0.452036 0.521330 0.205499 0.238827 0.000000 0.000000 0.000000 1.953711 -8.378020 -0.898346 -8.243821 6.101746 7.048253 91.195327 78.010282 -95.125192 0.000000 0.000000 0.000000 3.315032 -8.958872 -0.200712 5.098041 -1.075023 10.836871 -4.013677 -4.407263 2.927364 -35.580873 11.543234 -2.863465 -3.989973 -11.148733 0.401858 0.000000 0.000000 0.000000 2.527207 -8.666951 -0.808564 -0.150398 0.923792 -21.418165 0.729278 1.737809 7.517699 -49.574930 42.111654 44.739945 179.207430 37.264983 -177.962860 0.000000 0.000000 0.000000 
3.755919 85.214729 0.987026 0.000000 0.000000 0.000000 22.303576 -86.109417 24.482328 -20.160232 31.669180 29.816849 20.815452 -8.665742 -1.395748 -8.034317 2.959380 -19.169368 0.932194 -0.518544 -0.572176 0.000000 0.000000 0.000000 10.292275 -85.612555 13.436108 -15.570803 -10.893788 -30.683313 14.164080 4.575694 -3.234908 -6.147165 5.937422 21.951700 3.187934 0.841956 1.816792 0.000000 0.000000 0.000000 9.562157 -81.825161 12.068769 6.754336 -3.785649 -3.284709 1.843792 -7.999640 -0.435687 0.521325 0.206716 0.234681 0.000000 0.000000 0.000000 1.959492 -8.470860 -0.886689 -8.266341 6.174941 7.264382 93.890232 77.940771 -97.620820 0.000000 0.000000 0.000000 3.336268 -9.052698 -0.174395 5.009213 -0.854050 10.859697 -4.042734 -4.409302 2.908704 -35.539913 11.385449 -3.092709 -4.000559 -11.166354 0.397134 0.000000 0.000000 0.000000 2.545348 -8.761987 -0.800170 -0.059502 0.964378 -21.343460 0.716665 1.743424 7.582396 -49.069742 41.659851 44.506175 179.227838 36.903485 -177.951194 0.000000 0.000000 0.000000 
3.655706 85.215767 0.994400 0.000000 0.000000 0.000000 21.091798 -86.021820 23.336366 -20.025577 31.660352 29.714847 20.765256 -8.747286 -1.405749 -8.044414 2.987475 -19.182518 0.924142 -0.514381 -0.577173 0.000000 0.000000 0.000000 9.394147 -85.511182 12.612677 -15.390487 -10.789915 -30.742142 14.228951 4.392218 -3.315971 -6.291591 5.874165 22.001950 3.191444 0.844760 1.818442 0.000000 0.000000 0.000000 9.191837 -81.716670 11.762340 6.746545 -3.886673 -3.365356 1.834978 -8.090928 -0.413017 0.522824 0.206344 0.232245 0.000000 0.000000 0.000000 1.964981 -8.562370 -0.869588 -8.289226 6.256903 7.480127 96.564689 77.833598 -100.078445 0.000000 0.000000 0.000000 3.360763 -9.146593 -0.141239 4.919132 -0.641713 10.885626 -4.064048 -4.407438 2.894383 -35.509716 11.240391 -3.320658 -4.017685 -11.170044 0.384056 0.000000 0.000000 0.000000 2.563407 -8.856329 -0.786122 0.038316 1.006400 -21.260726 0.703067 1.757218 7.643069 -48.530516 41.191624 44.245040 179.255747 36.552136 -177.937711 0.000000 0.000000 0.000000 
3.557585 85.214561 1.003963 0.000000 0.000000 0.000000 19.903421 -85.937454 22.219316 -19.900221 31.650386 29.616773 20.725085 -8.822515 -1.411079 -8.052911 3.010084 -19.194715 0.922323 -0.509039 -0.583765 0.000000 0.000000 0.000000 8.507244 -85.406113 11.803743 -15.210138 -10.690439 -30.802777 14.295322 4.211820 -3.399938 -6.424724 5.811829 22.050878 3.181724 0.847967 1.822016 0.000000 0.000000 0.000000 8.791319 -81.614422 11.434079 6.751282 -3.985784 -3.458210 1.824461 -8.180016 -0.383835 0.523555 0.206936 0.232045 0.000000 0.000000 0.000000 1.969922 -8.650152 -0.847062 -8.309384 6.346560 7.686577 99.158009 77.693593 -102.448132 0.000000 0.000000 0.000000 3.387787 -9.238720 -0.101614 4.831302 -0.448902 10.915305 -4.072174 -4.400886 2.882525 -35.490974 11.118693 -3.535692 -4.040678 -11.167123 0.362885 0.000000 0.000000 0.000000 2.580246 -8.948030 -0.765880 0.142712 1.054059 -21.168570 0.686149 1.773861 7.695178 -47.966861 40.724877 43.954470 179.294966 36.223294 -177.924925 0.000000 0.000000 0.000000 
